# Blender v2.78 (sub 0) OBJ File: 'beast.blend'
# www.blender.org
mtllib beast.mtl
o Cube
v 0.652200 -0.296772 -0.305769
v 0.652200 -0.296772 0.305769
v 0.040662 -0.296772 0.305769
v 0.040662 -0.296772 -0.305769
v 0.652200 0.314766 -0.305769
v 0.652200 0.314766 0.305769
v 0.040662 0.314766 0.305769
v 0.040662 0.314766 -0.305769
v 1.173248 -0.491926 -0.500923
v 1.173248 -0.491926 0.500923
v 1.173248 0.509920 -0.500923
v 1.173248 0.509920 0.500924
v 1.692391 -0.233231 -0.242228
v 1.692391 -0.233231 0.242229
v 1.692391 0.251226 -0.242228
v 1.692390 0.251226 0.242229
v 1.766483 -0.102274 -0.111270
v 1.766483 -0.102274 0.111271
v 1.766483 0.120268 -0.111270
v 1.766482 0.120268 0.111271
v 1.965752 -0.141862 -0.150859
v 1.965752 -0.141862 0.150860
v 1.965752 0.159857 -0.150859
v 1.965752 0.159857 0.150860
v 2.090208 -0.072750 -0.081747
v 2.090208 -0.072750 0.081748
v 2.090208 0.090745 -0.081747
v 2.090208 0.090745 0.081748
v -0.002677 -0.108352 0.117350
v -0.002677 -0.108352 -0.117350
v -0.002677 0.126347 0.117350
v -0.002677 0.126347 -0.117350
v -0.735372 -0.057303 0.066300
v -0.735372 -0.057303 -0.066301
v -0.735371 0.075298 0.066300
v -0.735372 0.075298 -0.066301
v -1.089355 -0.008655 0.017652
v -1.089355 -0.008655 -0.017653
v -1.089355 0.026650 0.017652
v -1.089355 0.026650 -0.017653
v 0.652200 0.085616 -0.305769
v 0.652200 0.085616 0.305769
v 0.040662 0.085616 0.305769
v 0.040662 0.085616 -0.305769
v 1.173248 0.134518 -0.500923
v 1.173248 0.134518 0.500923
v 1.692391 0.069694 -0.242228
v 1.692391 0.069694 0.242229
v 1.766483 0.036879 -0.111270
v 1.766482 0.036879 0.111271
v 1.965752 0.046800 -0.150859
v 1.965752 0.046800 0.150860
v 2.090208 0.029481 -0.081747
v 2.090208 0.029481 0.081748
v -0.002677 0.038403 0.117350
v -0.002677 0.038403 -0.117350
v -0.735372 0.025611 0.066300
v -0.735372 0.025611 -0.066301
v -1.089355 0.013420 0.017652
v -1.089355 0.013420 -0.017653
v 2.198365 -0.059124 -0.059955
v 2.198365 -0.059124 0.059957
v 2.198365 0.015855 -0.059955
v 2.198365 0.015855 0.059957
v 0.652200 -0.296772 0.000000
v 0.040662 -0.296772 0.000000
v 0.652200 0.314766 0.000000
v 0.040662 0.314766 0.000000
v 1.173248 -0.491926 0.000000
v 1.173248 0.509920 0.000000
v 1.692391 -0.233231 0.000000
v 1.692391 0.251226 0.000001
v 1.766483 -0.102274 0.000000
v 1.766483 0.120268 0.000001
v 1.965752 -0.141862 0.000001
v 1.965752 0.159857 0.000001
v 2.090208 -0.072750 0.000001
v 2.090208 0.090745 0.000001
v -0.002677 -0.108352 0.000000
v -0.002677 0.126347 0.000000
v -0.735372 -0.057303 -0.000000
v -0.735372 0.075298 -0.000000
v -1.089355 -0.008655 -0.000000
v -1.089355 0.026650 -0.000000
v -1.089355 0.013420 -0.000000
v 2.090208 0.029481 0.000001
v 2.198365 -0.059124 0.000001
v 2.198365 0.015855 0.000001
v 0.490827 -0.426191 -0.225082
v 0.202036 -0.426191 -0.225082
v 0.202036 -0.426191 -0.080687
v 0.490827 -0.426191 -0.080687
v 0.444997 -0.752745 -0.202167
v 0.247865 -0.752745 -0.202167
v 0.247865 -0.752745 -0.103601
v 0.444997 -0.752745 -0.103601
v 0.486481 -0.419267 0.082860
v 0.486481 -0.419267 0.222910
v 0.206381 -0.419267 0.222910
v 0.206381 -0.419267 0.082860
v 0.431552 -0.741090 0.100497
v 0.431552 -0.741090 0.189267
v 0.254011 -0.741090 0.189267
v 0.254012 -0.741090 0.100497
v 1.173248 -0.491926 -0.500923
v 1.692391 -0.233231 -0.242228
v 1.173248 -0.491926 0.000000
v 1.692391 -0.233231 0.000000
vt 0.2686 0.2489
vt 0.2288 0.2800
vt 0.2248 0.2530
vt 0.2342 0.2429
vt 0.1481 0.1878
vt 0.1519 0.2047
vt 0.1547 0.2190
vt 0.1424 0.2336
vt 0.2782 0.1969
vt 0.4765 0.1314
vt 0.4429 0.3428
vt 0.1652 0.2654
vt 0.1643 0.2252
vt 0.1678 0.1946
vt 0.1562 0.2039
vt 0.1248 0.2048
vt 0.2242 0.1543
vt 0.2065 0.2120
vt 0.1789 0.1973
vt 0.8263 0.5558
vt 0.5618 0.5468
vt 0.6995 0.3585
vt 0.7757 0.3650
vt 0.1507 0.1875
vt 0.1420 0.2373
vt 0.0001 0.2765
vt 0.0317 0.1229
vt 0.1635 0.2641
vt 0.2735 0.4484
vt 0.0788 0.3772
vt 0.2245 0.1512
vt 0.1898 0.1498
vt 0.1394 0.0001
vt 0.2776 0.0001
vt 0.7348 0.3327
vt 0.7679 0.3345
vt 0.6853 0.2810
vt 0.6929 0.3118
vt 0.6877 0.3283
vt 0.6870 0.2659
vt 0.9999 0.2760
vt 0.9760 0.4781
vt 0.8096 0.3563
vt 0.8182 0.3040
vt 0.7528 0.0434
vt 0.9242 0.0839
vt 0.8004 0.2543
vt 0.7702 0.2560
vt 0.0822 0.9086
vt 0.0163 0.8877
vt 0.0835 0.8308
vt 0.0877 0.8330
vt 0.7376 0.2948
vt 0.7387 0.3125
vt 0.7854 0.3313
vt 0.7924 0.3089
vt 0.7942 0.2880
vt 0.7993 0.2934
vt 0.0821 0.8273
vt 0.0842 0.8219
vt 0.0866 0.8246
vt 0.0864 0.8270
vt 0.1736 0.8509
vt 0.1504 0.8975
vt 0.0923 0.8314
vt 0.0942 0.8282
vt 0.0001 0.8381
vt 0.0145 0.7422
vt 0.0955 0.7298
vt 0.1736 0.7541
vt 0.0928 0.8226
vt 0.0887 0.8204
vt 0.0881 0.8275
vt 0.0880 0.8287
vt 0.0862 0.8285
vt 0.0900 0.8249
vt 0.0884 0.8243
vt 0.2487 0.7657
vt 0.2205 0.7692
vt 0.2334 0.7316
vt 0.2487 0.7298
vt 0.7866 0.7053
vt 0.8303 0.7295
vt 0.3815 0.6418
vt 0.3784 0.6420
vt 0.1843 0.2122
vt 0.1650 0.2067
vt 0.2014 0.2232
vt 0.1949 0.2333
vt 0.1795 0.2212
vt 0.1802 0.2165
vt 0.1510 0.2133
vt 0.1598 0.2160
vt 0.3813 0.6275
vt 0.3825 0.6379
vt 0.0550 0.5763
vt 0.0500 0.5659
vt 0.7258 0.7110
vt 0.7532 0.6959
vt 0.3819 0.6421
vt 0.3770 0.6519
vt 0.7833 0.7189
vt 0.7437 0.7295
vt 0.7224 0.7185
vt 0.7180 0.7065
vt 0.3824 0.6394
vt 0.3792 0.6373
vt 0.0318 0.5651
vt 0.0366 0.5585
vt 0.0511 0.5635
vt 0.0293 0.5770
vt 0.0406 0.5773
vt 0.0230 0.5560
vt 0.0001 0.5635
vt 0.0900 0.8273
vt 0.0887 0.8257
vt 0.0883 0.8256
vt 0.1739 0.7553
vt 0.1863 0.7298
vt 0.2203 0.7415
vt 0.2136 0.7553
vt 0.1846 0.1554
vt 0.0882 0.8261
vt 0.0878 0.8261
vt 0.0879 0.8256
vt 0.0886 0.8261
vt 0.0899 0.8287
vt 0.2264 0.2158
vt 0.2237 0.2230
vt 0.2462 0.2125
vt 0.2449 0.2269
vt 0.2383 0.2190
vt 0.2378 0.2187
vt 0.2339 0.2200
vt 0.2339 0.2203
vt 0.2118 0.2411
vt 0.2167 0.2363
vt 0.2215 0.2433
vt 0.2214 0.2433
vt 0.2244 0.2455
vt 0.2241 0.2447
vt 0.4489 0.3382
vt 0.4740 0.1346
vn 0.5944 -0.8042 0.0000
vn 0.0000 1.0000 0.0000
vn -0.3507 -0.9365 0.0000
vn -0.0000 -0.0000 1.0000
vn -0.9746 0.2242 -0.0000
vn 0.0000 0.0000 -1.0000
vn 0.4460 -0.0000 0.8950
vn -0.3507 0.9365 -0.0000
vn -0.3507 -0.0000 0.9365
vn -0.3507 0.0000 -0.9365
vn 0.8704 -0.0000 0.4924
vn 0.4460 0.8950 0.0000
vn 0.4460 -0.0000 -0.8950
vn -0.1949 0.9808 -0.0000
vn 0.8704 -0.4924 0.0000
vn 0.8704 0.4924 0.0000
vn 0.8704 -0.0000 -0.4924
vn 0.4855 -0.0000 0.8742
vn -0.1949 0.0000 -0.9808
vn -0.1949 -0.0000 0.9808
vn -0.1949 -0.9808 0.0000
vn 1.0000 0.0000 0.0000
vn 0.4855 -0.8742 0.0000
vn 0.4855 0.8742 0.0000
vn 0.4855 -0.0000 -0.8742
vn -0.0695 0.9976 0.0000
vn -0.9746 -0.0000 -0.2242
vn -0.9746 -0.2242 -0.0000
vn -0.9746 -0.0000 0.2242
vn -0.1362 0.0000 -0.9907
vn -0.0695 0.0000 0.9976
vn -0.0695 0.0000 -0.9976
vn -0.0695 -0.9976 0.0000
vn -1.0000 0.0000 0.0000
vn -0.1362 -0.9907 0.0000
vn -0.1362 0.9907 0.0000
vn -0.1362 0.0000 0.9907
vn 0.1250 -0.9922 0.0000
vn 0.1975 0.0000 -0.9803
vn 0.1250 0.9922 0.0000
vn 0.1975 0.0000 0.9803
vn 0.4460 -0.8950 0.0000
vn -0.6256 -0.7801 -0.0000
vn 0.9903 -0.1390 0.0000
vn 0.6256 -0.7801 0.0000
vn 0.0000 -0.5291 -0.8486
vn -0.0000 -0.5291 0.8486
vn 0.0000 -1.0000 -0.0000
vn 0.0000 -0.0700 -0.9975
vn -0.0000 -0.0700 0.9975
vn -0.9903 -0.1390 -0.0000
vn -0.9892 -0.1464 -0.0000
vn 0.0000 -0.5603 0.8283
vn 0.0000 -0.5603 -0.8283
vn -0.5944 -0.8042 -0.0000
vn 0.9857 -0.1682 0.0000
vn 0.0000 -0.0547 -0.9985
vn -0.0000 -0.1040 0.9946
usemtl Material.001
s off
f 65/1/1 2/2/1 98/3/1 97/4/1
f 67/5/2 68/6/2 7/7/2 6/8/2
f 65/1/3 1/9/3 9/10/3 69/11/3
f 42/12/4 6/8/4 7/7/4 43/13/4
f 68/6/5 8/14/5 32/15/5 80/16/5
f 41/17/6 1/9/6 4/18/6 44/19/6
f 46/20/7 10/21/7 14/22/7 48/23/7
f 67/24/8 6/25/8 12/26/8 70/27/8
f 42/28/9 2/2/9 10/29/9 46/30/9
f 41/31/10 5/32/10 11/33/10 45/34/10
f 48/23/11 14/22/11 18/35/11 50/36/11
f 13/37/4 71/38/4 108/39/4 106/40/4
f 70/41/12 12/42/12 16/43/12 72/44/12
f 45/45/13 11/46/13 15/47/13 47/48/13
f 74/49/14 20/50/14 24/51/14 76/52/14
f 71/38/15 13/37/15 17/53/15 73/54/15
f 72/44/16 16/43/16 20/55/16 74/56/16
f 47/48/17 15/47/17 19/57/17 49/58/17
f 52/59/18 22/60/18 26/61/18 54/62/18
f 49/63/19 19/64/19 23/65/19 51/66/19
f 50/67/20 18/68/20 22/60/20 52/59/20
f 73/69/21 17/70/21 21/71/21 75/72/21
f 86/73/22 78/74/22 28/75/22 54/62/22
f 75/72/23 21/71/23 25/76/23 77/77/23
f 76/52/24 24/51/24 28/75/24 78/74/24
f 51/78/25 23/79/25 27/80/25 53/81/25
f 80/82/26 32/83/26 36/84/26 82/85/26
f 44/19/27 4/18/27 30/86/27 56/87/27
f 66/88/28 3/89/28 29/90/28 79/91/28
f 43/13/29 7/7/29 31/92/29 55/93/29
f 58/94/30 34/95/30 38/96/30 60/97/30
f 55/98/31 31/99/31 35/100/31 57/101/31
f 56/102/32 30/103/32 34/95/32 58/94/32
f 79/104/33 29/105/33 33/106/33 81/107/33
f 85/108/34 84/109/34 40/110/34 60/97/34
f 81/107/35 33/106/35 37/111/35 83/112/35
f 82/85/36 36/84/36 40/110/36 84/109/36
f 57/101/37 35/100/37 39/113/37 59/114/37
f 33/106/37 57/101/37 59/114/37 37/111/37
f 83/112/34 85/108/34 60/97/34 38/96/34
f 32/83/32 56/102/32 58/94/32 36/84/32
f 29/105/31 55/98/31 57/101/31 33/106/31
f 36/84/30 58/94/30 60/97/30 40/110/30
f 3/89/29 43/13/29 55/93/29 29/90/29
f 8/14/27 44/19/27 56/87/27 32/15/27
f 21/71/25 51/66/25 53/115/25 25/76/25
f 77/77/38 25/76/38 61/116/38 87/117/38
f 20/50/20 50/67/20 52/59/20 24/51/20
f 17/70/19 49/63/19 51/66/19 21/71/19
f 24/118/18 52/119/18 54/120/18 28/121/18
f 13/37/17 47/48/17 49/58/17 17/53/17
f 9/10/13 45/45/13 47/48/13 13/37/13
f 16/43/11 48/23/11 50/36/11 20/55/11
f 1/9/10 41/31/10 45/34/10 9/10/10
f 6/25/9 42/28/9 46/30/9 12/26/9
f 12/42/7 46/20/7 48/23/7 16/43/7
f 5/122/6 41/17/6 44/19/6 8/14/6
f 2/2/4 42/12/4 43/13/4 3/89/4
f 87/117/22 88/123/22 64/124/22 62/125/22
f 25/76/39 53/115/39 63/126/39 61/116/39
f 86/73/40 54/62/40 64/124/40 88/123/40
f 54/62/41 26/61/41 62/125/41 64/124/41
f 53/115/40 86/73/40 88/123/40 63/126/40
f 61/116/22 63/126/22 88/123/22 87/117/22
f 26/61/38 77/77/38 87/117/38 62/125/38
f 37/111/34 59/114/34 85/108/34 83/112/34
f 35/100/36 82/85/36 84/109/36 39/113/36
f 34/95/35 81/107/35 83/112/35 38/96/35
f 59/114/34 39/113/34 84/109/34 85/108/34
f 30/103/33 79/104/33 81/107/33 34/95/33
f 4/18/28 66/88/28 79/91/28 30/86/28
f 31/99/26 80/82/26 82/85/26 35/100/26
f 23/65/24 76/52/24 78/74/24 27/127/24
f 22/60/23 75/72/23 77/77/23 26/61/23
f 53/115/22 27/127/22 78/74/22 86/73/22
f 18/68/21 73/69/21 75/72/21 22/60/21
f 15/47/16 72/44/16 74/56/16 19/57/16
f 14/22/15 71/38/15 73/54/15 18/35/15
f 19/64/14 74/49/14 76/52/14 23/65/14
f 11/46/12 70/41/12 72/44/12 15/47/12
f 10/21/42 69/11/42 71/38/42 14/22/42
f 5/32/8 67/24/8 70/27/8 11/33/8
f 7/7/5 68/6/5 80/16/5 31/92/5
f 2/2/3 65/1/3 69/11/3 10/29/3
f 5/122/2 8/14/2 68/6/2 67/5/2
f 66/88/43 4/18/43 90/128/43 91/129/43
f 89/130/44 92/131/44 96/132/44 93/133/44
f 1/9/45 65/1/45 92/131/45 89/130/45
f 4/18/46 1/9/46 89/130/46 90/128/46
f 65/1/47 66/88/47 91/129/47 92/131/47
f 93/133/48 96/132/48 95/134/48 94/135/48
f 90/128/49 89/130/49 93/133/49 94/135/49
f 92/131/50 91/129/50 95/134/50 96/132/50
f 91/129/51 90/128/51 94/135/51 95/134/51
f 99/136/52 100/137/52 104/138/52 103/139/52
f 2/2/53 3/89/53 99/136/53 98/3/53
f 66/88/54 65/1/54 97/4/54 100/137/54
f 3/89/55 66/88/55 100/137/55 99/136/55
f 101/140/48 102/141/48 103/139/48 104/138/48
f 97/4/56 98/3/56 102/141/56 101/140/56
f 100/137/57 97/4/57 101/140/57 104/138/57
f 98/3/58 99/136/58 103/139/58 102/141/58
f 107/142/42 105/143/42 106/40/42 108/39/42
f 69/11/4 9/10/4 105/143/4 107/142/4
f 71/38/4 69/11/4 107/142/4 108/39/4
f 9/10/4 13/37/4 106/40/4 105/143/4
