# Blender v2.78 (sub 0) OBJ File: 'gate_steel.blend'
# www.blender.org
mtllib gate_steel.mtl
o Cube
v -0.118821 7.045390 0.120331
v -0.118821 7.045390 -0.108938
v 0.118821 7.045390 -0.108938
v 0.118821 7.045390 0.120331
v -0.118821 0.041705 0.120331
v -0.118821 0.041705 -0.108938
v 0.118821 0.041705 -0.108938
v 0.118821 0.041705 0.120331
v -0.013417 7.234261 0.018641
v -0.013417 7.234261 -0.007248
v 0.013417 7.234261 0.018641
v 0.013417 7.234261 -0.007248
v -0.118821 5.452947 -1.538372
v -0.118821 5.452947 -1.767642
v 0.118821 5.452947 -1.767642
v 0.118821 5.452947 -1.538372
v -0.118821 0.072851 -1.538373
v -0.118821 0.072851 -1.767642
v 0.118821 0.072851 -1.767642
v 0.118821 0.072851 -1.538372
v -0.013417 5.598033 -1.640063
v -0.013417 5.598033 -1.665952
v 0.013417 5.598033 -1.640063
v 0.013417 5.598033 -1.665952
v -0.118821 3.699921 -3.454906
v -0.118821 3.699921 -3.684176
v 0.118821 3.699921 -3.684176
v 0.118821 3.699921 -3.454906
v -0.118821 0.087177 -3.454906
v -0.118821 0.087177 -3.684176
v 0.118821 0.087177 -3.684176
v 0.118821 0.087177 -3.454906
v -0.013417 3.797347 -3.556596
v -0.013417 3.797347 -3.582486
v 0.013417 3.797347 -3.556596
v 0.013417 3.797347 -3.582486
v -0.118821 5.452947 -5.422412
v -0.118821 5.452947 -5.651681
v 0.118821 5.452947 -5.651681
v 0.118821 5.452947 -5.422412
v -0.118821 0.072851 -5.422412
v -0.118821 0.072851 -5.651681
v 0.118821 0.072851 -5.651681
v 0.118821 0.072851 -5.422412
v -0.013417 5.598033 -5.524102
v -0.013417 5.598033 -5.549991
v 0.013417 5.598033 -5.524102
v 0.013417 5.598033 -5.549991
v -0.118821 5.452947 5.947873
v -0.118821 5.452947 5.718604
v 0.118821 5.452947 5.718604
v 0.118821 5.452947 5.947873
v -0.118821 0.072851 5.947873
v -0.118821 0.072851 5.718604
v 0.118821 0.072851 5.718604
v 0.118821 0.072851 5.947873
v -0.013417 5.598033 5.846184
v -0.013417 5.598033 5.820294
v 0.013417 5.598033 5.846184
v 0.013417 5.598033 5.820294
v -0.118821 3.699921 4.031340
v -0.118821 3.699921 3.802070
v 0.118821 3.699921 3.802070
v 0.118821 3.699921 4.031340
v -0.118821 0.087177 4.031340
v -0.118821 0.087177 3.802070
v 0.118821 0.087177 3.802070
v 0.118821 0.087177 4.031340
v -0.013417 3.797347 3.929649
v -0.013417 3.797347 3.903760
v 0.013417 3.797347 3.929649
v 0.013417 3.797347 3.903760
v -0.118821 5.452947 2.063834
v -0.118821 5.452947 1.834565
v 0.118821 5.452947 1.834565
v 0.118821 5.452947 2.063834
v -0.118821 0.072851 2.063834
v -0.118821 0.072851 1.834565
v 0.118821 0.072851 1.834565
v 0.118821 0.072851 2.063834
v -0.013417 5.598033 1.962144
v -0.013417 5.598033 1.936254
v 0.013417 5.598033 1.962144
v 0.013417 5.598033 1.936254
v -0.125948 0.872795 7.249860
v -0.125948 0.965468 7.243879
v 0.111693 0.965468 7.243879
v 0.111693 0.872795 7.249860
v -0.125948 0.838472 -6.780549
v -0.125948 0.931146 -6.786530
v 0.111693 0.931146 -6.786530
v 0.111693 0.838472 -6.780549
v -0.125948 1.506976 7.249860
v -0.125948 1.599650 7.243879
v 0.111693 1.599650 7.243879
v 0.111693 1.506976 7.249860
v -0.125948 1.472654 -6.780549
v -0.125948 1.565328 -6.786530
v 0.111693 1.565328 -6.786530
v 0.111693 1.472654 -6.780549
v -0.125948 2.234595 7.249860
v -0.125948 2.327269 7.243879
v 0.111693 2.327269 7.243879
v 0.111693 2.234595 7.249860
v -0.125948 2.200272 -6.780549
v -0.125948 2.292946 -6.786530
v 0.111693 2.292946 -6.786530
v 0.111693 2.200272 -6.780549
v -0.125948 2.974468 7.249860
v -0.125948 3.067142 7.243879
v 0.111693 3.067142 7.243879
v 0.111693 2.974468 7.249860
v -0.125948 2.940145 -6.780549
v -0.125948 3.032819 -6.786530
v 0.111693 3.032819 -6.786530
v 0.111693 2.940145 -6.780549
vt 0.1934 0.0138
vt 0.1778 0.0138
vt 0.1847 0.0000
vt 0.1865 0.0000
vt 0.2091 0.3937
vt 0.2091 0.4106
vt 0.1934 0.4106
vt 0.1934 0.3937
vt 0.1934 0.5123
vt 0.1778 0.5123
vt 0.1459 0.0136
vt 0.1459 0.5125
vt 0.1297 0.5125
vt 0.1297 0.0136
vt 0.1621 0.4986
vt 0.1621 0.0000
vt 0.1778 0.0000
vt 0.1778 0.4986
vt 0.1459 0.5119
vt 0.1459 0.0139
vt 0.1621 0.0139
vt 0.1621 0.5119
vt 0.2560 0.4014
vt 0.2577 0.4014
vt 0.2577 0.4033
vt 0.2560 0.4033
vt 0.1708 0.5123
vt 0.1691 0.5123
vt 0.1369 0.0000
vt 0.1387 0.0000
vt 0.1531 0.0000
vt 0.1549 0.0000
vt 0.4831 0.0106
vt 0.4675 0.0106
vt 0.4744 0.0000
vt 0.4762 0.0000
vt 0.2247 0.3937
vt 0.2247 0.4106
vt 0.2091 0.4106
vt 0.2091 0.3937
vt 0.4831 0.3936
vt 0.4675 0.3936
vt 0.1934 0.3832
vt 0.1934 0.0000
vt 0.2096 0.0000
vt 0.2096 0.3832
vt 0.4049 0.0106
vt 0.4049 0.3936
vt 0.3893 0.3936
vt 0.3893 0.0106
vt 0.2583 0.3934
vt 0.2583 0.0108
vt 0.2745 0.0108
vt 0.2745 0.3934
vt 0.2560 0.3994
vt 0.2577 0.3994
vt 0.2577 0.4014
vt 0.2560 0.4014
vt 0.3962 0.0000
vt 0.3980 0.0000
vt 0.2024 0.3937
vt 0.2006 0.3937
vt 0.2655 0.0000
vt 0.2673 0.0000
vt 0.2745 0.3934
vt 0.2901 0.3934
vt 0.2832 0.4009
vt 0.2814 0.4009
vt 0.3058 0.4103
vt 0.3058 0.3934
vt 0.3214 0.3934
vt 0.3214 0.4103
vt 0.5312 0.2572
vt 0.5312 0.0000
vt 0.5469 0.0000
vt 0.5469 0.2572
vt 0.5150 0.5147
vt 0.5150 0.2573
vt 0.5312 0.2573
vt 0.5312 0.5147
vt 0.5312 0.5145
vt 0.5469 0.2573
vt 0.5469 0.5145
vt 0.4988 0.5286
vt 0.4988 0.2717
vt 0.5150 0.2717
vt 0.5150 0.5286
vt 0.2832 0.4028
vt 0.2814 0.4028
vt 0.2901 0.4103
vt 0.2745 0.4103
vt 0.5060 0.2643
vt 0.5078 0.2643
vt 0.4362 0.0106
vt 0.4206 0.0106
vt 0.4275 0.0000
vt 0.4293 0.0000
vt 0.2901 0.4103
vt 0.2901 0.3934
vt 0.3058 0.3934
vt 0.3058 0.4103
vt 0.4362 0.3936
vt 0.4206 0.3936
vt 0.2420 0.0105
vt 0.2420 0.3937
vt 0.2258 0.3937
vt 0.2258 0.0105
vt 0.4675 0.0106
vt 0.4675 0.3936
vt 0.4519 0.3936
vt 0.4519 0.0106
vt 0.3069 0.3934
vt 0.3069 0.0108
vt 0.3231 0.0108
vt 0.3231 0.3934
vt 0.2560 0.3956
vt 0.2577 0.3956
vt 0.2577 0.3975
vt 0.2560 0.3975
vt 0.4588 0.0000
vt 0.4606 0.0000
vt 0.2330 0.0000
vt 0.2349 0.0000
vt 0.3141 0.0000
vt 0.3159 0.0000
vt 0.4519 0.0106
vt 0.4362 0.0106
vt 0.4432 0.0000
vt 0.4449 0.0000
vt 0.3737 0.4105
vt 0.3737 0.3936
vt 0.3893 0.3936
vt 0.3893 0.4105
vt 0.4519 0.3936
vt 0.4362 0.3936
vt 0.2096 0.3832
vt 0.2096 0.0000
vt 0.2258 0.0000
vt 0.2258 0.3832
vt 0.3893 0.0106
vt 0.3737 0.0106
vt 0.2745 0.3934
vt 0.2745 0.0108
vt 0.2907 0.0108
vt 0.2907 0.3934
vt 0.2560 0.3975
vt 0.2577 0.3975
vt 0.2577 0.3994
vt 0.2560 0.3994
vt 0.3806 0.0000
vt 0.3824 0.0000
vt 0.2186 0.3937
vt 0.2168 0.3937
vt 0.2817 0.0000
vt 0.2835 0.0000
vt 0.2583 0.3934
vt 0.2739 0.3934
vt 0.2670 0.4009
vt 0.2652 0.4009
vt 0.2560 0.3937
vt 0.2560 0.4106
vt 0.2403 0.4106
vt 0.2403 0.3937
vt 0.5469 0.2572
vt 0.5469 0.0000
vt 0.5625 0.0000
vt 0.5625 0.2572
vt 0.5150 0.2573
vt 0.5150 0.0000
vt 0.5312 0.0000
vt 0.5312 0.2573
vt 0.5625 0.2573
vt 0.5625 0.5145
vt 0.5469 0.5145
vt 0.5469 0.2573
vt 0.4988 0.2643
vt 0.4988 0.0074
vt 0.5150 0.0074
vt 0.5150 0.2643
vt 0.2670 0.4028
vt 0.2652 0.4028
vt 0.2739 0.4103
vt 0.2583 0.4103
vt 0.5060 0.0000
vt 0.5078 0.0000
vt 0.4049 0.3830
vt 0.4206 0.3830
vt 0.4136 0.3936
vt 0.4119 0.3936
vt 0.2403 0.3937
vt 0.2403 0.4106
vt 0.2247 0.4106
vt 0.2247 0.3937
vt 0.4049 0.0000
vt 0.4206 0.0000
vt 0.2583 0.0105
vt 0.2583 0.3937
vt 0.2420 0.3937
vt 0.2420 0.0105
vt 0.4988 0.0106
vt 0.4988 0.3936
vt 0.4831 0.3936
vt 0.4831 0.0106
vt 0.2907 0.3934
vt 0.2907 0.0108
vt 0.3069 0.0108
vt 0.3069 0.3934
vt 0.2560 0.3937
vt 0.2577 0.3937
vt 0.2577 0.3956
vt 0.2560 0.3956
vt 0.4901 0.0000
vt 0.4919 0.0000
vt 0.2492 0.0000
vt 0.2511 0.0000
vt 0.2979 0.0000
vt 0.2997 0.0000
vt 0.3893 0.4105
vt 0.3893 0.3936
vt 0.3956 0.3936
vt 0.3956 0.4105
vt 0.3231 1.0000
vt 0.3231 0.0004
vt 0.3294 0.0000
vt 0.3294 0.9996
vt 0.0486 0.9996
vt 0.0486 0.0000
vt 0.0649 0.0000
vt 0.0649 0.9996
vt 0.3484 0.9996
vt 0.3484 0.0000
vt 0.3547 0.0004
vt 0.3547 1.0000
vt 0.0811 0.0000
vt 0.0811 0.9996
vt 0.0649 0.9996
vt 0.0649 0.0000
vt 0.4019 0.4105
vt 0.4019 0.3936
vt 0.4082 0.3936
vt 0.4082 0.4105
vt 0.3673 0.0000
vt 0.3673 0.9996
vt 0.3610 1.0000
vt 0.3610 0.0004
vt 0.0000 0.9996
vt 0.0000 0.0000
vt 0.0162 0.0000
vt 0.0162 0.9996
vt 0.3421 0.9996
vt 0.3421 0.0000
vt 0.3484 0.0004
vt 0.3484 1.0000
vt 0.0973 0.0000
vt 0.0973 0.9996
vt 0.0811 0.9996
vt 0.0811 0.0000
vt 0.4019 0.3936
vt 0.4019 0.4105
vt 0.3956 0.4105
vt 0.3956 0.3936
vt 0.3294 1.0000
vt 0.3294 0.0004
vt 0.3357 0.0000
vt 0.3357 0.9996
vt 0.0162 0.9996
vt 0.0162 0.0000
vt 0.0324 0.0000
vt 0.0324 0.9996
vt 0.3547 0.9996
vt 0.3547 0.0000
vt 0.3610 0.0004
vt 0.3610 1.0000
vt 0.1297 0.0000
vt 0.1297 0.9996
vt 0.1135 0.9996
vt 0.1135 0.0000
vt 0.2646 0.4103
vt 0.2646 0.4272
vt 0.2583 0.4272
vt 0.2583 0.4103
vt 0.3737 0.0000
vt 0.3737 0.9996
vt 0.3673 1.0000
vt 0.3673 0.0004
vt 0.0324 0.9996
vt 0.0324 0.0000
vt 0.0486 0.0000
vt 0.0486 0.9996
vt 0.3421 0.0004
vt 0.3421 1.0000
vt 0.3357 0.9996
vt 0.3357 0.0000
vt 0.1135 0.0000
vt 0.1135 0.9996
vt 0.0973 0.9996
vt 0.0973 0.0000
vn 0.8732 -0.4873 0.0000
vn 0.0000 1.0000 -0.0000
vn 1.0000 0.0000 0.0000
vn -0.0000 -0.0000 1.0000
vn -1.0000 -0.0000 -0.0000
vn 0.0000 0.0000 -1.0000
vn 0.0000 -1.0000 -0.0000
vn -0.8732 -0.4873 -0.0000
vn -0.0000 -0.4741 0.8805
vn 0.0000 -0.4741 -0.8805
vn 0.8090 -0.5878 0.0000
vn -0.8090 -0.5878 -0.0000
vn 0.0000 -0.5740 0.8189
vn 0.0000 -0.5740 -0.8189
vn 0.6788 -0.7344 0.0000
vn -0.6788 -0.7344 0.0000
vn 0.0000 -0.7221 0.6918
vn 0.0000 -0.7221 -0.6918
vn 0.0000 0.0644 0.9979
vn 0.0000 -1.0000 0.0024
vn 0.0000 1.0000 -0.0024
usemtl steel_gate_mat
s off
f 1/1/1 2/2/1 10/3/1 9/4/1
f 5/5/2 8/6/2 7/7/2 6/8/2
f 1/1/3 5/9/3 6/10/3 2/2/3
f 2/11/4 6/12/4 7/13/4 3/14/4
f 3/15/5 7/16/5 8/17/5 4/18/5
f 5/19/6 1/20/6 4/21/6 8/22/6
f 9/23/7 10/24/7 12/25/7 11/26/7
f 3/15/8 4/18/8 11/27/8 12/28/8
f 2/11/9 3/14/9 12/29/9 10/30/9
f 4/21/10 1/20/10 9/31/10 11/32/10
f 13/33/11 14/34/11 22/35/11 21/36/11
f 17/37/2 20/38/2 19/39/2 18/40/2
f 13/33/3 17/41/3 18/42/3 14/34/3
f 14/43/4 18/44/4 19/45/4 15/46/4
f 15/47/5 19/48/5 20/49/5 16/50/5
f 17/51/6 13/52/6 16/53/6 20/54/6
f 21/55/7 22/56/7 24/57/7 23/58/7
f 15/47/12 16/50/12 23/59/12 24/60/12
f 14/43/13 15/46/13 24/61/13 22/62/13
f 16/53/14 13/52/14 21/63/14 23/64/14
f 25/65/15 26/66/15 34/67/15 33/68/15
f 29/69/2 32/70/2 31/71/2 30/72/2
f 25/73/3 29/74/3 30/75/3 26/76/3
f 26/77/4 30/78/4 31/79/4 27/80/4
f 27/81/5 31/79/5 32/82/5 28/83/5
f 29/84/6 25/85/6 28/86/6 32/87/6
f 33/68/7 34/67/7 36/88/7 35/89/7
f 27/90/16 28/91/16 35/89/16 36/88/16
f 26/66/17 27/90/17 36/88/17 34/67/17
f 28/86/18 25/85/18 33/92/18 35/93/18
f 37/94/11 38/95/11 46/96/11 45/97/11
f 41/98/2 44/99/2 43/100/2 42/101/2
f 37/94/3 41/102/3 42/103/3 38/95/3
f 38/104/4 42/105/4 43/106/4 39/107/4
f 39/108/5 43/109/5 44/110/5 40/111/5
f 41/112/6 37/113/6 40/114/6 44/115/6
f 45/116/7 46/117/7 48/118/7 47/119/7
f 39/108/12 40/111/12 47/120/12 48/121/12
f 38/104/13 39/107/13 48/122/13 46/123/13
f 40/114/14 37/113/14 45/124/14 47/125/14
f 49/126/11 50/127/11 58/128/11 57/129/11
f 53/130/2 56/131/2 55/132/2 54/133/2
f 49/126/3 53/134/3 54/135/3 50/127/3
f 50/136/4 54/137/4 55/138/4 51/139/4
f 51/140/5 55/132/5 56/131/5 52/141/5
f 53/142/6 49/143/6 52/144/6 56/145/6
f 57/146/7 58/147/7 60/148/7 59/149/7
f 51/140/12 52/141/12 59/150/12 60/151/12
f 50/136/13 51/139/13 60/152/13 58/153/13
f 52/144/14 49/143/14 57/154/14 59/155/14
f 61/156/15 62/157/15 70/158/15 69/159/15
f 65/160/2 68/161/2 67/162/2 66/163/2
f 61/164/3 65/165/3 66/166/3 62/167/3
f 62/168/4 66/169/4 67/170/4 63/171/4
f 63/172/5 67/173/5 68/174/5 64/175/5
f 65/176/6 61/177/6 64/178/6 68/179/6
f 69/159/7 70/158/7 72/180/7 71/181/7
f 63/182/16 64/183/16 71/181/16 72/180/16
f 62/157/17 63/182/17 72/180/17 70/158/17
f 64/178/18 61/177/18 69/184/18 71/185/18
f 73/186/11 74/187/11 82/188/11 81/189/11
f 77/190/2 80/191/2 79/192/2 78/193/2
f 73/186/3 77/194/3 78/195/3 74/187/3
f 74/196/4 78/197/4 79/198/4 75/199/4
f 75/200/5 79/201/5 80/202/5 76/203/5
f 77/204/6 73/205/6 76/206/6 80/207/6
f 81/208/7 82/209/7 84/210/7 83/211/7
f 75/200/12 76/203/12 83/212/12 84/213/12
f 74/196/13 75/199/13 84/214/13 82/215/13
f 76/206/14 73/205/14 81/216/14 83/217/14
f 89/218/19 92/219/19 91/220/19 90/221/19
f 85/222/3 89/223/3 90/224/3 86/225/3
f 86/226/20 90/227/20 91/228/20 87/229/20
f 87/230/5 91/231/5 92/232/5 88/233/5
f 89/234/21 85/235/21 88/236/21 92/237/21
f 97/238/19 100/239/19 99/240/19 98/241/19
f 93/242/3 97/243/3 98/244/3 94/245/3
f 94/246/20 98/247/20 99/248/20 95/249/20
f 95/250/5 99/251/5 100/252/5 96/253/5
f 97/254/21 93/255/21 96/256/21 100/257/21
f 105/258/19 108/259/19 107/260/19 106/261/19
f 101/262/3 105/263/3 106/264/3 102/265/3
f 102/266/20 106/267/20 107/268/20 103/269/20
f 103/270/5 107/271/5 108/272/5 104/273/5
f 105/274/21 101/275/21 104/276/21 108/277/21
f 113/278/19 116/279/19 115/280/19 114/281/19
f 109/282/3 113/283/3 114/284/3 110/285/3
f 110/286/20 114/287/20 115/288/20 111/289/20
f 111/290/5 115/291/5 116/292/5 112/293/5
f 113/294/21 109/295/21 112/296/21 116/297/21
