# Blender v2.78 (sub 0) OBJ File: 'gate_stone.blend'
# www.blender.org
mtllib gate_stone.mtl
o Cube
v 8.299718 19.417305 -1.083781
v 8.299718 0.035263 -1.083781
v 8.299718 19.417305 0.916219
v 8.299718 0.035263 0.916219
v 3.632537 19.417305 -1.083781
v 3.632537 0.035263 -1.083781
v 3.632537 19.417305 0.916219
v 3.632537 0.035263 0.916219
v -3.707864 19.417305 -1.083781
v -3.707864 0.035263 -1.083781
v -3.707864 19.417305 0.916219
v -3.707864 0.035263 0.916219
v -8.375044 19.417305 -1.083781
v -8.375044 0.035263 -1.083781
v -8.375044 19.417305 0.916219
v -8.375044 0.035263 0.916219
v -3.703011 16.494659 -1.083781
v 3.609735 16.430267 -1.083781
v -3.703011 16.494659 0.916219
v 3.609735 16.430267 0.916219
v -3.714730 14.164820 -1.083781
v 3.598016 14.100428 -1.083781
v -3.714730 14.164820 0.916219
v 3.598016 14.100428 0.916219
vt -0.2599 2.2394
vt -0.2599 1.4805
vt 0.0657 1.4805
vt 0.0657 2.2394
vt 1.0426 1.4805
vt 1.0426 2.2394
vt 0.7170 2.2394
vt 0.7170 1.4805
vt -0.1512 1.4805
vt -0.1512 -1.6710
vt 0.6086 -1.6710
vt 0.6086 1.4805
vt 2.3454 -1.6710
vt 2.3454 1.4805
vt 2.0198 1.4805
vt 2.0198 -1.6710
vt -0.9111 1.4805
vt -0.9111 -1.6710
vt -0.1513 -1.6710
vt -0.1512 1.4805
vt 1.3685 1.4805
vt 1.3685 -1.6710
vt 1.6941 -1.6710
vt 1.6941 1.4805
vt 0.0657 2.2394
vt 0.0657 1.4805
vt 0.3914 1.4805
vt 0.3914 2.2394
vt 0.7170 1.4805
vt 0.7170 2.2394
vt 0.3914 2.2394
vt 0.3914 1.4805
vt 0.6086 1.4805
vt 0.6086 -1.6710
vt 1.3685 -1.6710
vt 1.3685 1.4805
vt 2.6710 -1.6710
vt 2.6710 1.4805
vt 2.3454 1.4805
vt 2.3454 -1.6710
vt -1.6710 1.4805
vt -1.6710 -1.6710
vt -0.9111 -1.6710
vt -0.9111 1.4805
vt 1.6941 1.4805
vt 1.6941 -1.6710
vt 2.0198 -1.6710
vt 2.0198 1.4805
vt 1.0426 1.8593
vt 1.0426 1.4805
vt 1.3682 1.4805
vt 1.3682 1.8593
vt 1.3685 1.8593
vt 1.3685 1.4805
vt 1.6941 1.4805
vt 1.6941 1.8593
vt -1.2917 2.6696
vt -1.2917 1.4805
vt -0.9123 1.4819
vt -0.9123 2.6710
vt -0.2599 1.4805
vt -0.2599 2.6695
vt -0.5855 2.6695
vt -0.5855 1.4805
vt -1.2917 1.4805
vt -1.2917 2.6696
vt -1.6710 2.6710
vt -1.6710 1.4819
vt -0.5855 1.4805
vt -0.5855 2.6696
vt -0.9111 2.6696
vt -0.9111 1.4805
vn 0.0000 1.0000 0.0000
vn 0.0000 -1.0000 0.0000
vn 0.0000 0.0000 1.0000
vn 1.0000 0.0000 0.0000
vn 0.0000 0.0000 -1.0000
vn -1.0000 0.0000 0.0000
vn -1.0000 0.0050 0.0000
vn 1.0000 -0.0050 0.0000
vn 0.0088 1.0000 0.0000
vn -0.0088 -1.0000 0.0000
usemtl stone_gate
s off
f 1/1/1 5/2/1 7/3/1 3/4/1
f 6/5/2 2/6/2 4/7/2 8/8/2
f 4/9/3 3/10/3 7/11/3 8/12/3
f 2/13/4 1/14/4 3/15/4 4/16/4
f 6/17/5 5/18/5 1/19/5 2/20/5
f 8/21/6 7/22/6 5/23/6 6/24/6
f 9/25/1 13/26/1 15/27/1 11/28/1
f 14/29/2 10/30/2 12/31/2 16/32/2
f 12/33/3 11/34/3 15/35/3 16/36/3
f 10/37/4 9/38/4 11/39/4 12/40/4
f 14/41/5 13/42/5 9/43/5 10/44/5
f 16/45/6 15/46/6 13/47/6 14/48/6
f 17/49/7 21/50/7 23/51/7 19/52/7
f 22/53/8 18/54/8 20/55/8 24/56/8
f 20/57/3 19/58/3 23/59/3 24/60/3
f 18/61/9 17/62/9 19/63/9 20/64/9
f 22/65/5 21/66/5 17/67/5 18/68/5
f 24/69/10 23/70/10 21/71/10 22/72/10
