# Blender v2.78 (sub 0) OBJ File: 'gate_frame.blend'
# www.blender.org
mtllib gate_frame.mtl
o Cube.001
v 0.414333 5.342945 2.295283
v 0.414333 5.342945 4.959697
v -0.414333 5.342945 4.959697
v -0.414333 5.342945 2.295282
v 0.414333 11.497006 2.295283
v 0.414333 11.497006 4.959697
v -0.414333 11.497006 4.959697
v -0.414333 11.497006 2.295283
v 0.414333 5.342945 -4.241594
v 0.414333 5.342945 -1.577182
v -0.414333 5.342945 -1.577182
v -0.414333 5.342945 -4.241594
v 0.414333 11.497006 -4.241594
v 0.414333 11.497006 -1.577180
v -0.414333 11.497006 -1.577182
v -0.414333 11.497006 -4.241597
v 0.414333 9.873308 -1.573685
v 0.414333 9.873308 2.285411
v -0.414333 9.873308 2.285411
v -0.414333 9.873308 -1.573686
v 0.414333 10.695737 -1.573685
v 0.414333 10.695737 2.285411
v -0.414333 10.695737 2.285409
v -0.414333 10.695737 -1.573685
vt 0.7957 0.5063
vt -0.5836 1.9064
vt -0.5940 0.5167
vt 0.8061 1.8960
vt -0.5732 3.2962
vt -0.5836 1.9064
vt 0.8165 3.2858
vt 2.1959 1.8856
vt 2.2063 3.2754
vt -1.9734 1.9168
vt -0.5732 3.2962
vt -1.9630 3.3066
vt 0.8061 1.8960
vt 2.1855 0.4959
vt 2.1959 1.8856
vt 3.5857 1.8752
vt 3.5961 3.2650
vt -1.2276 -0.8684
vt -2.6277 -2.2478
vt -1.2380 -2.2582
vt 2.1855 0.4959
vt 3.5857 1.8752
vt 2.1959 1.8856
vt -1.9942 -0.8627
vt -0.5940 0.5167
vt -1.9838 0.5271
vt -1.2380 -2.2582
vt 0.1622 -0.8788
vt 0.1622 -0.8788
vt 1.5416 -2.2790
vt 1.5520 -0.8892
vt -0.5836 1.9064
vt -1.9838 0.5271
vt -0.5940 0.5167
vt 1.5520 -0.8892
vt 3.5545 -2.2941
vt 3.5649 -0.9043
vt 1.5624 0.5005
vt 3.5649 -0.9043
vt 3.5753 0.4855
vt -0.4533 0.1441
vt 1.5610 0.3148
vt -0.4519 0.3299
vt 0.1684 -0.0462
vt 1.5596 0.1291
vt 0.1698 0.1395
vt -0.4519 0.3299
vt 1.5624 0.5005
vt -0.4505 0.5156
vt 1.5568 -0.2424
vt 0.1684 -0.0462
vt 0.1670 -0.2320
vt 0.8061 1.8960
vt 0.8165 3.2858
vt 0.8061 1.8960
vt -0.5836 1.9064
vt 0.7957 0.5063
vt 2.1959 1.8856
vt -2.6173 -0.8580
vt 3.5753 0.4855
vt -0.6044 -0.8731
vt 0.1518 -2.2686
vt 0.1518 -2.2686
vt -1.9734 1.9168
vt 1.5416 -2.2790
vt 1.5520 -0.8892
vt 1.5596 0.1291
vt 1.5582 -0.0566
vt 1.5610 0.3148
vt 1.5582 -0.0566
vn 0.0000 -1.0000 -0.0000
vn 0.0000 1.0000 -0.0000
vn 1.0000 -0.0000 0.0000
vn 0.0000 0.0000 1.0000
vn -1.0000 -0.0000 -0.0000
vn 0.0000 0.0000 -1.0000
usemtl gate_stone
s off
f 1/1/1 3/2/1 4/3/1
f 5/4/2 7/5/2 6/6/2
f 5/7/3 2/8/3 1/9/3
f 6/10/4 3/11/4 2/12/4
f 7/13/5 4/14/5 3/15/5
f 1/9/6 8/16/6 5/17/6
f 10/18/1 12/19/1 9/20/1
f 13/21/2 15/22/2 14/23/2
f 13/24/3 10/25/3 9/26/3
f 14/27/4 11/28/4 10/18/4
f 15/29/5 12/30/5 11/31/5
f 9/32/6 16/33/6 13/34/6
f 18/35/1 20/36/1 17/37/1
f 21/38/2 23/39/2 22/40/2
f 21/41/3 18/42/3 17/43/3
f 22/44/4 19/45/4 18/46/4
f 23/47/5 20/48/5 19/49/5
f 21/50/6 20/51/6 24/52/6
f 1/1/1 2/53/1 3/2/1
f 5/4/2 8/54/2 7/5/2
f 5/7/3 6/55/3 2/8/3
f 6/10/4 7/56/4 3/11/4
f 7/13/5 8/57/5 4/14/5
f 1/9/6 4/58/6 8/16/6
f 10/18/1 11/59/1 12/19/1
f 13/21/2 16/60/2 15/22/2
f 13/24/3 14/61/3 10/25/3
f 14/27/4 15/62/4 11/28/4
f 15/29/5 16/63/5 12/30/5
f 9/32/6 12/64/6 16/33/6
f 18/35/1 19/65/1 20/36/1
f 21/38/2 24/66/2 23/39/2
f 21/41/3 22/67/3 18/42/3
f 22/44/4 23/68/4 19/45/4
f 23/47/5 24/69/5 20/48/5
f 21/50/6 17/70/6 20/51/6
