# Blender v2.78 (sub 0) OBJ File: 'gate_stone.blend'
# www.blender.org
mtllib gate_stone.mtl
o Cube
v 23.073809 19.417305 -1.083781
v 23.073809 0.035263 -1.083781
v 23.073809 19.417305 0.916219
v 23.073809 0.035263 0.916219
v 3.632537 19.417305 -1.083781
v 3.632537 0.035263 -1.083781
v 3.632537 19.417305 0.916219
v 3.632537 0.035263 0.916219
v -3.707864 19.417305 -1.083781
v -3.707864 0.035263 -1.083781
v -3.707864 19.417305 0.916219
v -3.707864 0.035263 0.916219
v -23.888367 19.417305 -1.083781
v -23.888367 0.035263 -1.083781
v -23.888367 19.417305 0.916219
v -23.888367 0.035263 0.916219
v -3.703011 16.494659 -1.083781
v 3.609735 16.430267 -1.083781
v -3.703011 16.494659 0.916219
v 3.609735 16.430267 0.916219
v -3.714730 14.164820 -1.083781
v 3.598016 14.100428 -1.083781
v -3.714730 14.164820 0.916219
v 3.598016 14.100428 0.916219
vt 0.6323 0.5000
vt 0.6323 0.9817
vt 0.5979 0.9817
vt 0.5979 0.5000
vt 0.5635 0.9817
vt 0.5635 0.5000
vt 0.5979 0.5000
vt 0.5979 0.9817
vt 0.6667 0.0000
vt 1.0000 0.0000
vt 1.0000 0.4817
vt 0.6667 0.4817
vt 0.4947 0.5000
vt 0.4947 0.9802
vt 0.4603 0.9802
vt 0.4603 0.5000
vt 0.3333 0.9817
vt 0.0000 0.9817
vt 0.0000 0.5000
vt 0.3333 0.5000
vt 0.5291 0.9802
vt 0.5291 0.5000
vt 0.5635 0.5000
vt 0.5635 0.9802
vt 0.6323 1.0000
vt 0.6323 0.5000
vt 0.6667 0.5000
vt 0.6667 1.0000
vt 0.7011 0.4817
vt 0.7011 0.9817
vt 0.6667 0.9817
vt 0.6667 0.4817
vt 0.3333 0.0000
vt 0.6667 0.0000
vt 0.3333 0.5000
vt 0.4603 0.5000
vt 0.4603 0.9802
vt 0.4259 0.9802
vt 0.4259 0.5000
vt 0.3333 0.5000
vt 0.0000 0.5000
vt 0.0000 0.0000
vt 0.3333 0.0000
vt 0.4947 0.9802
vt 0.4947 0.5000
vt 0.5291 0.5000
vt 0.5291 0.9802
vt 0.3458 0.9203
vt 0.3458 0.8626
vt 0.3802 0.8626
vt 0.3802 0.9203
vt 0.4145 0.8626
vt 0.4145 0.9203
vt 0.3802 0.9203
vt 0.3802 0.8626
vt 0.3458 0.6812
vt 0.3458 0.5000
vt 0.3858 0.5002
vt 0.3858 0.6814
vt 0.3802 0.8626
vt 0.3802 0.6814
vt 0.4145 0.6814
vt 0.4145 0.8626
vt 0.4259 0.5000
vt 0.4259 0.6812
vt 0.3858 0.6814
vt 0.3858 0.5002
vt 0.3458 0.8626
vt 0.3458 0.6814
vt 0.3802 0.6814
vt 0.3802 0.8626
vn 0.0000 1.0000 0.0000
vn 0.0000 -1.0000 0.0000
vn 0.0000 0.0000 1.0000
vn 1.0000 0.0000 0.0000
vn 0.0000 0.0000 -1.0000
vn -1.0000 0.0000 0.0000
vn -1.0000 0.0050 0.0000
vn 1.0000 -0.0050 0.0000
vn 0.0088 1.0000 0.0000
vn -0.0088 -1.0000 0.0000
usemtl stone_gate
s off
f 1/1/1 5/2/1 7/3/1 3/4/1
f 6/5/2 2/6/2 4/7/2 8/8/2
f 4/9/3 3/10/3 7/11/3 8/12/3
f 2/13/4 1/14/4 3/15/4 4/16/4
f 6/17/5 5/18/5 1/19/5 2/20/5
f 8/21/6 7/22/6 5/23/6 6/24/6
f 9/25/1 13/26/1 15/27/1 11/28/1
f 14/29/2 10/30/2 12/31/2 16/32/2
f 12/33/3 11/34/3 15/27/3 16/35/3
f 10/36/4 9/37/4 11/38/4 12/39/4
f 14/40/5 13/41/5 9/42/5 10/43/5
f 16/44/6 15/45/6 13/46/6 14/47/6
f 17/48/7 21/49/7 23/50/7 19/51/7
f 22/52/8 18/53/8 20/54/8 24/55/8
f 20/56/3 19/57/3 23/58/3 24/59/3
f 18/60/9 17/61/9 19/62/9 20/63/9
f 22/64/5 21/65/5 17/66/5 18/67/5
f 24/68/10 23/69/10 21/70/10 22/71/10
