# Blender v2.78 (sub 0) OBJ File: ''
# www.blender.org
mtllib wall_stone2.mtl
o Cube_Cube.001
v -0.096188 0.000038 5.672608
v -0.096188 2.000038 5.672608
v -0.096188 0.000038 -5.600413
v -0.096188 2.000038 -5.600413
v 0.829760 0.000038 5.672608
v 0.829760 2.000038 5.672608
v 0.829760 0.000038 -5.600413
v 0.829760 2.000038 -5.600413
vt 0.9282 0.0718
vt 0.0718 0.0718
vt 0.0718 -0.7847
vt 0.9282 -0.7847
vt 0.0718 0.9282
vt -0.7847 0.9282
vt -0.7847 0.0718
vt 0.0718 0.0718
vt -0.7847 -0.7847
vt 0.0718 -0.7847
vt 0.0718 0.9282
vt 0.0718 0.0718
vt 0.9282 0.0718
vt 0.9282 0.9282
vt 1.7847 0.0718
vt 0.9282 0.0718
vt 0.9282 -0.7847
vt 1.7847 -0.7847
vt 0.0718 0.9282
vt 0.0718 1.7847
vt -0.7847 1.7847
vt -0.7847 0.9282
vn -1.0000 0.0000 0.0000
vn 0.0000 0.0000 -1.0000
vn 1.0000 0.0000 0.0000
vn 0.0000 0.0000 1.0000
vn 0.0000 -1.0000 0.0000
vn 0.0000 1.0000 0.0000
usemtl wall_stone
s off
f 1/1/1 2/2/1 4/3/1 3/4/1
f 3/5/2 4/6/2 8/7/2 7/8/2
f 7/8/3 8/7/3 6/9/3 5/10/3
f 5/11/4 6/12/4 2/13/4 1/14/4
f 3/15/5 7/16/5 5/17/5 1/18/5
f 8/19/6 4/20/6 2/21/6 6/22/6
